PathFileType	4	(X/Y/Z)	2014001\dynamic\2014001_C1_05.trc
DataRate	CameraRate	NumFrames	NumMarkers	Units	OrigDataRate	OrigDataStartFrame	OrigNumFrames
100.000000	100.000000	4	52	mm	100.000000	205	549
Frame#	Time	L_IAS			L_IPS			R_IPS			R_IAS			L_FTC			L_FLE			L_FME			L_FAX			L_TTC			L_FAL			L_TAM			L_FCC			L_FM1			L_FM2			L_FM5			R_FTC			R_FLE			R_FME			R_FAX			R_TTC			R_FAL			R_TAM			R_FCC			R_FM1			R_FM2			R_FM5			CV7			TV10			SXS			SJN			L_SIA			L_SRS			L_SAA			L_SAE			L_HLE			L_HME			L_UOA			L_RSP			L_UHE			L_HM2			L_HM5			R_SIA			R_SRS			R_SAA			R_SAE			R_HLE			R_HME			R_UOA			R_RSP			R_UHE			R_HM2			R_HM5			
		X1	Y1	Z1	X2	Y2	Z2	X3	Y3	Z3	X4	Y4	Z4	X5	Y5	Z5	X6	Y6	Z6	X7	Y7	Z7	X8	Y8	Z8	X9	Y9	Z9	X10	Y10	Z10	X11	Y11	Z11	X12	Y12	Z12	X13	Y13	Z13	X14	Y14	Z14	X15	Y15	Z15	X16	Y16	Z16	X17	Y17	Z17	X18	Y18	Z18	X19	Y19	Z19	X20	Y20	Z20	X21	Y21	Z21	X22	Y22	Z22	X23	Y23	Z23	X24	Y24	Z24	X25	Y25	Z25	X26	Y26	Z26	X27	Y27	Z27	X28	Y28	Z28	X29	Y29	Z29	X30	Y30	Z30	X31	Y31	Z31	X32	Y32	Z32	X33	Y33	Z33	X34	Y34	Z34	X35	Y35	Z35	X36	Y36	Z36	X37	Y37	Z37	X38	Y38	Z38	X39	Y39	Z39	X40	Y40	Z40	X41	Y41	Z41	X42	Y42	Z42	X43	Y43	Z43	X44	Y44	Z44	X45	Y45	Z45	X46	Y46	Z46	X47	Y47	Z47	X48	Y48	Z48	X49	Y49	Z49	X50	Y50	Z50	X51	Y51	Z51	X52	Y52	Z52	

206	2.05	407.5356140136721	863.706909179688	497.3922424316409	310.9998168945314	905.002563476563	328.262420654297	222.0382232666017	902.4014282226567	334.3931579589845	164.7878112792969	877.7605590820317	518.3384399414065	448.1708679199221	783.119018554688	411.520202636719	386.7509765625002	433.4407348632815	356.2987060546876	277.8208007812501	426.4180603027346	394.9570617675784	382.0515747070314	377.3946228027345	322.6060791015626	342.2914428710939	345.6619873046876	381.1008911132814	303.6045837402345	79.57534790039065	212.0693511962892	221.0663604736329	89.41458892822268	247.6042022705079	250.4374847412111	50.4784965515137	168.9219818115235	244.4968261718751	32.04075241088869	347.7081909179689	306.6897277832032	34.93249130249025	351.5366210937501	347.5358886718751	21.69918251037598	291.342987060547	95.93866729736331	779.1193847656255	440.3611145019534	116.8632431030274	447.0981750488284	550.1777343750002	233.4309692382814	437.2766113281252	567.491394042969	109.6169128417969	379.625946044922	552.3750610351565	159.7391510009766	392.3113098144534	616.0570068359377	139.5004577636719	70.37454986572268	623.697937011719	221.2419891357423	97.35047912597662	658.654968261719	198.2680816650392	16.13595771789551	603.9714965820315	196.2651977539064	77.21891021728518	776.701049804688	138.8675231933594	84.28395843505862	769.175659179688	104.0110931396485	50.39773178100589	726.4257812500002	286.7686157226564	1372.05908203125	353.8908691406251	276.1623840332032	1137.217895507813	291.4348449707032	299.2506713867189	1142.790893554688	520.342712402344	298.9282226562501	1304.217407226563	478.8117370605471	369.0584106445314	1174.3486328125	277.4129638671876	367.3904724121095	1304.868041992188	299.8421020507814	482.1961669921877	1299.98583984375	361.3502197265626	471.872497558594	1310.830444335938	403.4026489257815	539.509948730469	1025.414428710938	361.2616271972657	462.207702636719	995.4308471679692	339.2134704589845	511.5621643066409	992.6845703125005	328.708465576172	498.6621093750002	800.9230346679692	467.5095520019534	562.4116821289065	792.668334960938	416.329528808594	507.8099060058596	720.4787597656252	502.1235351562502	562.6385498046877	713.8929443359377	414.8414001464846	164.1483764648438	1185.618408203125	292.5086669921876	193.3305969238282	1309.635986328125	317.3235168457032	97.30148315429693	1307.313354492188	405.574890136719	113.2815017700196	1311.72412109375	452.2311706542971	24.49877738952638	1013.21240234375	400.4623107910159	98.06262207031256	995.3717651367192	369.4666748046876	51.39130020141604	989.5007934570317	368.1767883300782	54.93395996093753	806.9655761718755	503.9540710449221	-11.50184726715088	805.700317382813	454.9429321289065	31.93219566345216	731.470153808594	548.054870605469	-16.87174606323243	726.315124511719	455.3987426757815	
207	2.06	406.5540466308596	863.412231445313	500.5185241699221	309.4346618652345	904.9255981445317	331.7768554687501	220.4702453613282	902.2680664062505	338.0570678710939	163.8979187011719	877.358276367188	522.1662597656252	447.1353149414065	783.075805664063	414.3330688476565	386.1768798828127	433.6086425781252	357.9324645996095	277.251434326172	426.2726745605471	396.4910278320315	381.5945129394532	377.6847534179689	324.0231933593751	341.8223876953126	345.6612243652345	382.3667907714845	303.7789001464845	80.10525512695315	212.3130187988282	221.2361297607423	89.60376739501956	247.6704711914064	250.6825408935548	51.14442443847659	168.9923248291016	244.5126342773439	32.01943969726564	347.6573791503907	306.7164306640626	34.90779495239259	351.5543518066407	347.5664062500001	21.69884109497071	291.3669738769532	94.82838439941409	778.7778930664067	444.2987060546877	116.1644592285157	446.3869628906252	552.6646118164065	232.9287109375001	436.3906555175784	569.101989746094	108.9650421142579	378.9375915527345	554.7126464843752	159.5755004882813	391.3448486328127	618.162780761719	139.3290100097657	69.52640533447268	624.7359619140627	221.3023223876954	96.31105041503912	659.4279785156252	198.052947998047	15.77044677734376	604.134216308594	196.9393768310548	74.82365417480472	777.6223754882817	139.4497985839844	81.96604156494143	770.4533691406255	104.4575729370118	48.41649246215823	727.5205688476565	285.1426086425782	1371.816650390625	357.4711914062501	274.4221191406251	1137.012573242188	295.020965576172	298.1286010742189	1142.5087890625	523.8621215820315	297.6359863281251	1303.925415039063	482.348571777344	367.1708984375001	1174.110473632813	280.7298889160157	365.6013488769532	1304.646484375	303.2000122070314	480.6048583984377	1299.693359375	364.3792419433595	470.3880004882815	1310.541870117188	406.4779357910159	538.091003417969	1025.169555664063	364.197723388672	460.7608947753909	995.1115722656255	342.3318786621095	510.0974426269534	992.4274291992192	331.7110595703126	497.7284240722659	800.665649414063	470.5794982910159	561.3287353515627	792.4420776367192	419.1494750976565	507.0319519042971	720.1307373046877	504.9480285644534	561.594421386719	713.6691894531252	417.6171569824221	162.4271240234376	1185.311645507813	296.402069091797	191.5921325683594	1309.40673828125	321.1890869140626	95.81951904296878	1306.95458984375	409.6948242187502	111.9165802001954	1311.366577148438	456.2930908203127	23.133207321167	1012.872192382813	404.4145507812502	96.59124755859381	995.043334960938	373.2915649414064	49.93376922607425	989.2363891601567	372.1209716796876	53.74135589599612	806.360961914063	507.3943786621096	-12.82914257049561	805.1819458007817	458.6414794921877	30.84415435791017	730.7257080078127	551.3179321289065	-18.19711112976075	725.8311157226565	458.7934570312502	
208	2.07	405.5070495605471	863.160766601563	503.7131347656252	307.8711547851564	904.8853149414067	335.3475952148439	218.8932952880861	902.2069702148442	341.7519531250001	162.9730529785157	877.0740356445317	526.0384521484377	446.0633850097659	783.0390014648442	417.2265930175784	385.5736389160159	433.8105163574221	359.6468811035157	276.6412353515626	426.1638183593752	398.0759582519534	381.1139221191407	378.018035888672	325.5103149414064	341.316131591797	345.694549560547	383.6894531250001	303.9739990234376	80.68990325927737	212.5890045166017	221.4183807373048	89.85170745849612	247.7680664062501	250.9490356445314	51.87701034545901	169.0801544189454	244.5318298339845	32.00594711303712	347.6109619140626	306.7420349121095	34.88473510742189	351.5806579589845	347.5936889648439	21.70433044433594	291.3975830078126	93.67456054687503	778.5657348632817	448.2789611816409	115.3765869140626	445.7943115234377	555.280456542969	232.3427734375001	435.6365051269534	570.8252563476565	108.2349319458008	378.3657836914064	557.1641235351565	159.3191680908204	390.4862976074221	620.395446777344	139.1153106689454	68.79739379882815	625.8052978515627	221.2924652099611	95.387321472168	660.3137207031252	197.859588623047	15.60862159729005	604.3276367187502	197.4083557128907	72.41011810302737	778.6209106445317	139.8220977783204	79.63171386718753	771.723754882813	104.7770080566407	46.43905258178712	728.548522949219	283.4981689453126	1371.634155273438	361.1138000488282	272.6969604492189	1136.8740234375	298.6560363769532	296.9700622558595	1142.278442382813	527.4267578125002	296.3128356933595	1303.689208984375	485.9423828125002	365.2807617187501	1173.942260742188	284.1072998046876	363.8027954101564	1304.496704101563	306.6226806640626	478.9986572265627	1299.460083007813	367.4901123046876	468.8815917968752	1310.314208984375	409.6294250488284	536.622741699219	1024.979370117188	367.2326965332032	459.2598266601565	994.8490600585942	345.558074951172	508.5769958496096	992.2268066406255	334.8165588378907	496.7485656738284	800.460083007813	473.7427673339846	560.203308105469	792.274780273438	422.0659790039065	506.2014770507815	719.823181152344	507.8271789550784	560.5059814453127	713.5025634765627	420.4775085449221	160.6978149414063	1185.068725585938	300.3399353027345	189.8358917236329	1309.245361328125	325.101776123047	94.31829071044925	1306.645385742188	413.8628845214846	110.5321884155274	1311.054809570313	460.406188964844	21.76768684387208	1012.584899902344	408.434509277344	95.1086120605469	994.7536621093755	377.2080383300782	48.46502685546878	989.0083007812505	376.154022216797	52.54042434692386	805.8035278320317	510.9474182128909	-14.16882514953614	804.707153320313	462.4594421386721	29.74438095092775	730.038024902344	554.7020263671877	-19.53596115112305	725.395202636719	462.3079223632815	
209	2.08	404.3872985839846	862.964721679688	506.9758300781252	306.3166503906251	904.891723632813	338.959197998047	217.3157043457032	902.2265625000005	345.4679260253907	162.0032653808594	876.9197387695317	529.9382324218752	444.9549865722659	783.0221557617192	420.1995849609377	384.9473571777346	434.0562744140627	361.4433593750001	275.9973144531251	426.0996093750002	399.7182617187502	380.6156311035157	378.4039916992189	327.0684509277345	340.7833557128907	345.770965576172	385.0728149414065	304.1949462890626	81.33826446533206	212.900115966797	221.6171417236329	90.17517852783206	247.9075927734376	251.2404785156251	52.68825149536136	169.1898040771485	244.5588836669923	32.00151443481447	347.5695800781251	306.769744873047	34.86199188232423	351.6156005859376	347.6196899414064	21.71517944335938	291.4356079101564	92.47845458984378	778.4870605468755	452.2788085937502	114.5049667358399	445.3320922851565	558.0527954101565	231.6711883544923	435.0321350097659	572.7076416015627	107.4291610717774	377.922576904297	559.757263183594	158.9671020507813	389.7459106445315	622.7803955078127	138.8550109863282	68.19136047363284	626.9163208007815	221.2035369873048	94.58747100830081	661.3237915039065	197.6861114501954	15.64775371551514	604.572692871094	197.6689605712892	69.99553680419925	779.701049804688	139.9854888916016	77.29338836669925	772.991333007813	104.9607086181641	44.4875946044922	729.5169067382815	281.8416137695314	1371.521362304688	364.816619873047	270.9967651367189	1136.8125	302.3356323242189	295.7754821777345	1142.110229492188	531.031677246094	294.9617919921876	1303.521850585938	489.5925598144534	363.4066162109376	1173.860961914063	287.5450744628907	362.0055541992189	1304.43115234375	310.111785888672	477.383728027344	1299.304809570313	370.6907043457032	467.3575439453127	1310.164794921875	412.8634338378909	535.1055297851565	1024.86181640625	370.3650817871095	457.7032775878909	994.6644897460942	348.8921508789064	506.9995117187502	992.1018676757817	338.0230712890626	495.7178344726565	800.3218383789067	476.9917907714846	559.030700683594	792.1835327148442	425.0760803222659	505.3154296875002	719.5775146484377	510.7734375000002	559.3660278320315	713.4095458984377	423.4184570312502	158.9664916992188	1184.906127929688	304.3159484863282	188.0698852539063	1309.162719726563	329.054901123047	92.80261993408206	1306.402465820313	418.072937011719	109.1344223022462	1310.806274414063	464.5610656738284	20.40367698669434	1012.360229492188	412.5366210937502	93.62082672119143	994.5205688476567	381.2141113281251	46.99036407470705	988.8327026367192	380.2721557617189	51.33389663696292	805.3165893554692	514.6065673828127	-15.51806259155274	804.2980346679692	466.3906555175784	28.63341331481935	729.4260253906252	558.208679199219	-20.8871078491211	725.0262451171877	465.9431152343752	
